<svg xmlns="http://www.w3.org/2000/svg" width="98" height="40" viewBox="0 0 98 40" fill="none"><path d="M7.45557 15.6033C7.45557 14.5668 8.31778 14.1679 9.74606 14.1679C11.7937 14.1679 14.3803 14.7795 16.4281 15.8693V9.62246C14.1918 8.74533 11.9824 8.39974 9.74606 8.39974C4.27617 8.39974 0.638672 11.2175 0.638672 15.9225C0.638672 23.2588 10.8775 22.0894 10.8775 25.2527C10.8775 26.4752 9.79987 26.8741 8.29087 26.8741C6.05457 26.8741 3.19837 25.9702 0.934977 24.7475V31.0739C3.44087 32.1372 5.97367 32.589 8.29087 32.589C13.8953 32.589 17.7484 29.8512 17.7484 25.0931C17.7215 17.1718 7.45557 18.5805 7.45557 15.6033V15.6033ZM25.67 3.08351L19.0956 4.46565L19.0687 25.7575C19.0687 29.6918 22.0596 32.589 26.0474 32.589C28.2568 32.589 29.8734 32.1903 30.7625 31.7118V26.3158C29.9005 26.6614 25.6431 27.8841 25.6431 23.95V14.5135H30.7625V8.85167H25.6431L25.67 3.08351V3.08351ZM39.1424 10.8186L38.7112 8.85167H32.8912V32.1105H39.6274V16.3477C41.2169 14.301 43.9115 14.6731 44.7468 14.9654V8.85167C43.8846 8.53263 40.7321 7.94782 39.1424 10.8186V10.8186ZM46.3903 8.85167H53.1534V32.1105H46.3903V8.85167V8.85167ZM46.3903 6.83145L53.1534 5.39604V0L46.3903 1.40887V6.83126V6.83145ZM67.2184 8.39974C64.5778 8.39974 62.8803 9.62246 61.9374 10.4732L61.5869 8.82513H55.6593V39.8191L62.3953 38.4104L62.4224 30.8878C63.3924 31.5789 64.8203 32.5624 67.1915 32.5624C72.0146 32.5624 76.4065 28.7347 76.4065 20.3084C76.3796 12.5996 71.9337 8.39974 67.2184 8.39974V8.39974ZM65.6018 26.7144C64.0121 26.7144 63.0688 26.1564 62.4224 25.4652L62.3953 15.6033C63.0959 14.8325 64.0659 14.301 65.6018 14.301C68.0537 14.301 69.7512 17.0122 69.7512 20.4944C69.7512 24.0563 68.0806 26.7144 65.6018 26.7144V26.7144ZM97.6387 20.5742C97.6387 13.7692 94.2975 8.39974 87.9118 8.39974C81.4988 8.39974 77.6188 13.7694 77.6188 20.5211C77.6188 28.522 82.1996 32.5624 88.7738 32.5624C91.9803 32.5624 94.4053 31.8447 96.2375 30.8347V25.5183C94.4055 26.4221 92.3037 26.9804 89.6362 26.9804C87.0225 26.9804 84.7053 26.0766 84.409 22.94H97.5849C97.5849 22.5942 97.6387 21.2121 97.6387 20.5742ZM84.3281 18.0489C84.3281 15.0452 86.1874 13.7958 87.8849 13.7958C89.5284 13.7958 91.2799 15.0452 91.2799 18.0489H84.3281Z" fill="#ffffff"></path></svg>