<svg xmlns="http://www.w3.org/2000/svg" width="121" height="26" viewBox="0 0 121 26" fill="none"><path d="M0.388463 0.0117188H16.8532V3.07682H10.3704V20.3553H6.81704V3.07682H0.361328L0.388463 0.0117188ZM16.1479 5.62655H19.1859V8.47465H19.2402C19.3573 8.05438 19.5504 7.65909 19.8098 7.30829C20.087 6.9132 20.4259 6.56518 20.8134 6.27754C21.201 5.95203 21.6413 5.69517 22.1154 5.51805C22.5706 5.32602 23.059 5.22467 23.553 5.21968C23.9328 5.21968 24.204 5.2468 24.3396 5.2468C24.4823 5.27821 24.6276 5.29636 24.7736 5.30105V8.4204C24.5411 8.36898 24.3056 8.33274 24.0684 8.3119C23.8345 8.28035 23.5991 8.26224 23.3631 8.25766C22.8306 8.25558 22.3036 8.36651 21.817 8.58315C21.3317 8.80921 20.8978 9.13231 20.5422 9.53252C20.1629 10.0021 19.8691 10.5346 19.6742 11.1058C19.446 11.806 19.336 12.5394 19.3487 13.2757V20.2739H16.0937L16.1479 5.62655ZM39.6922 20.3553H36.4915V18.3074H36.4373C36.0222 19.0617 35.4014 19.6826 34.647 20.0976C33.9181 20.5369 33.084 20.7712 32.2329 20.7757C30.3071 20.7757 28.8966 20.3146 28.0286 19.3381C27.1606 18.3616 26.7266 16.924 26.7266 14.9982V5.64011H29.9816V14.6727C29.9816 15.9747 30.2257 16.8969 30.7411 17.4123C31.2564 17.9276 31.9346 18.226 32.8297 18.226C33.4163 18.2442 33.9997 18.133 34.5385 17.9005C34.9711 17.7132 35.3525 17.4248 35.6507 17.0596C35.9487 16.685 36.1616 16.25 36.2745 15.7848C36.4092 15.2622 36.4731 14.724 36.4644 14.1844V5.64011H39.7194V20.3689L39.6922 20.3553ZM45.2257 15.6356C45.3342 16.585 45.6868 17.2359 46.3107 17.6428C46.9942 18.0369 47.7734 18.2341 48.562 18.2124C48.9071 18.2092 49.2515 18.182 49.5928 18.1311C49.9642 18.0857 50.3287 17.9946 50.6778 17.8598C51.0077 17.7423 51.2988 17.5357 51.5187 17.2631C51.7452 16.9803 51.8523 16.6201 51.817 16.2595C51.8125 16.0656 51.7694 15.8747 51.6902 15.6977C51.611 15.5207 51.4974 15.3613 51.3559 15.2287C51.0327 14.9533 50.666 14.7333 50.2709 14.5777C49.7768 14.4 49.2687 14.2639 48.7519 14.1709C48.1823 14.0624 47.6127 13.9267 47.0159 13.7911C46.4192 13.6555 45.8224 13.4927 45.2528 13.3029C44.7055 13.1289 44.1918 12.8629 43.7338 12.5162C43.2844 12.1931 42.9212 11.7647 42.676 11.2685C42.3868 10.6882 42.2469 10.0449 42.2691 9.39689C42.238 8.67991 42.4481 7.97318 42.8658 7.38966C43.2562 6.8465 43.7667 6.40091 44.3577 6.08767C44.9855 5.74845 45.6629 5.51043 46.365 5.38243C47.0539 5.25561 47.753 5.19206 48.4536 5.19255C49.1839 5.18874 49.9123 5.27067 50.6235 5.43667C51.2909 5.58012 51.9257 5.8469 52.4951 6.2233C53.0596 6.57962 53.5332 7.06255 53.8785 7.63378C54.2697 8.26712 54.511 8.98153 54.5838 9.72239H51.1932C51.0304 8.93577 50.6778 8.4204 50.1353 8.14915C49.5326 7.86883 48.874 7.72967 48.2094 7.74228C47.9924 7.74228 47.6941 7.76941 47.3957 7.79653C47.091 7.83996 46.7913 7.91263 46.5006 8.01353C46.237 8.11852 45.9972 8.27533 45.7953 8.47465C45.6957 8.5793 45.618 8.70279 45.5668 8.83786C45.5155 8.97294 45.4918 9.11689 45.497 9.26127C45.4893 9.43988 45.5219 9.61793 45.5924 9.78225C45.6628 9.94657 45.7692 10.093 45.9038 10.2106C46.2273 10.4789 46.5942 10.6899 46.9888 10.8345C47.4829 11.0123 47.991 11.1484 48.5078 11.2414C49.0774 11.3499 49.6742 11.4855 50.2709 11.6211C50.8677 11.7568 51.4373 11.9195 52.0069 12.1094C52.5566 12.2775 53.0713 12.5441 53.5259 12.896C53.9694 13.222 54.3391 13.6379 54.6109 14.1166C54.8972 14.6785 55.0372 15.3036 55.0177 15.934C55.0439 16.7182 54.8362 17.4924 54.421 18.1582C54.0181 18.7602 53.4909 19.2689 52.8749 19.6501C52.2154 20.0341 51.5023 20.3175 50.7592 20.4909C50.0019 20.6598 49.2293 20.7507 48.4536 20.7622C47.5839 20.7695 46.7172 20.66 45.8767 20.4367C45.1396 20.2424 44.442 19.9211 43.8152 19.4873C43.2448 19.0667 42.7804 18.5187 42.459 17.8869C42.108 17.1783 41.9225 16.3992 41.9165 15.6085H45.1986V15.6356H45.2257ZM55.94 5.62655H58.4083V1.17809H61.6633V5.59942H64.5928V8.01353H61.6633V15.8797C61.6653 16.1788 61.6835 16.4776 61.7176 16.7748C61.744 16.9923 61.8083 17.2034 61.9074 17.3987C62.0216 17.5668 62.1816 17.6987 62.3686 17.7784C62.6472 17.8762 62.9414 17.9222 63.2366 17.9141C63.4629 17.9186 63.6894 17.9095 63.9147 17.8869C64.1426 17.864 64.3691 17.8278 64.5928 17.7784V20.3011C64.2402 20.3553 63.8876 20.3824 63.5349 20.4095C63.1843 20.4554 62.8306 20.4735 62.4771 20.4638C61.7816 20.4852 61.0868 20.4029 60.4156 20.2197C59.9579 20.0862 59.5392 19.8443 59.195 19.5144C58.8968 19.185 58.6909 18.7826 58.5982 18.3481C58.4869 17.8122 58.4234 17.2676 58.4083 16.7206V8.04065H55.94V5.62655ZM66.8713 5.62655H69.9364V7.63378H69.9906C70.3977 6.8226 71.0667 6.17266 71.8894 5.7893C72.7218 5.40348 73.6301 5.20885 74.5476 5.21968C75.5951 5.18656 76.6358 5.40026 77.5856 5.84354C78.4253 6.22257 79.1607 6.79965 79.7284 7.52528C80.3169 8.26289 80.7505 9.11166 81.0033 10.0208C81.5629 11.9496 81.5816 13.9952 81.0575 15.934C80.8134 16.8176 80.4188 17.6526 79.8912 18.4023C79.3707 19.116 78.6932 19.7007 77.9111 20.1112C77.0401 20.561 76.0701 20.7848 75.0901 20.7622C74.6169 20.7574 74.145 20.712 73.6796 20.6265C73.2131 20.5449 72.7578 20.4083 72.3234 20.2197C71.8923 20.0344 71.4903 19.7877 71.1299 19.4873C70.7667 19.198 70.455 18.8495 70.2076 18.4566H70.1534V25.8074H66.8984V5.62655H66.8713ZM78.2366 13.0045C78.2416 12.3527 78.1502 11.7037 77.9653 11.0786C77.8092 10.4826 77.5423 9.92135 77.1787 9.42402C76.8362 8.95371 76.4027 8.55706 75.9038 8.25766C75.3651 7.95903 74.7565 7.80923 74.1407 7.82366C72.7845 7.82366 71.7537 8.28477 71.0485 9.23414C70.3432 10.1835 70.0178 11.4584 70.0178 13.0316C70.0054 13.7284 70.0968 14.4232 70.289 15.0931C70.449 15.6844 70.7257 16.2378 71.1027 16.7206C71.4514 17.1739 71.896 17.5444 72.4047 17.8056C72.9494 18.0859 73.5554 18.2257 74.1678 18.2124C74.822 18.2313 75.4689 18.0719 76.0394 17.7513C76.5378 17.4512 76.9712 17.0547 77.3143 16.585C77.6521 16.0831 77.8914 15.5216 78.0196 14.9303C78.1587 14.2977 78.2314 13.6522 78.2366 13.0045ZM83.9599 0.0117188H87.2149V3.07682H83.9599V0.0117188ZM83.9599 5.62655H87.2149V20.3553H83.9599V5.62655ZM90.1172 0.0117188H93.3722V20.3553H90.1172V0.0117188ZM103.3 20.7622C102.221 20.7844 101.149 20.5812 100.153 20.1654C99.2769 19.7929 98.4837 19.2487 97.8206 18.5651C97.1761 17.8504 96.6866 17.0099 96.383 16.0967C96.0408 15.0924 95.8667 14.0384 95.8677 12.9774C95.8532 11.9241 96.0278 10.8768 96.383 9.88514C96.6929 8.97477 97.1817 8.13554 97.8206 7.41679C98.4715 6.71879 99.2679 6.17244 100.153 5.81643C101.153 5.41346 102.222 5.2107 103.3 5.21968C104.379 5.19742 105.45 5.40068 106.446 5.81643C107.328 6.17916 108.123 6.72458 108.779 7.41679C109.424 8.13147 109.913 8.97191 110.217 9.88514C110.559 10.8801 110.733 11.9252 110.732 12.9774C110.749 14.0396 110.574 15.0962 110.217 16.0967C109.896 17.0022 109.408 17.8395 108.779 18.5651C108.128 19.2631 107.332 19.8094 106.446 20.1654C105.447 20.5708 104.378 20.7736 103.3 20.7622ZM103.3 18.1853C103.953 18.1973 104.598 18.0383 105.171 17.7242C105.69 17.4304 106.136 17.0222 106.473 16.5307C106.824 16.0291 107.081 15.4686 107.233 14.8761C107.558 13.6404 107.558 12.3415 107.233 11.1058C107.086 10.5113 106.828 9.94996 106.473 9.45114C106.128 8.97371 105.684 8.57597 105.171 8.28477C104.597 7.97391 103.953 7.81517 103.3 7.82366C102.646 7.81172 102.001 7.97067 101.428 8.28477C100.916 8.57678 100.473 8.97438 100.126 9.45114C99.7712 9.94996 99.5135 10.5113 99.3667 11.1058C99.0412 12.3415 99.0412 13.6404 99.3667 14.8761C99.5135 15.4705 99.7712 16.0319 100.126 16.5307C100.471 17.0162 100.915 17.423 101.428 17.7242C101.998 18.0474 102.645 18.207 103.3 18.1853ZM111.709 5.62655H114.177V1.17809H117.432V5.59942H120.361V8.01353H117.432V15.8797C117.434 16.1788 117.452 16.4776 117.486 16.7748C117.513 16.9923 117.577 17.2034 117.676 17.3987C117.79 17.5668 117.95 17.6987 118.137 17.7784C118.416 17.8762 118.71 17.9222 119.005 17.9141C119.231 17.9186 119.458 17.9095 119.683 17.8869C119.911 17.864 120.138 17.8278 120.361 17.7784V20.3011C120.009 20.3553 119.656 20.3824 119.303 20.4095C118.953 20.4554 118.599 20.4735 118.246 20.4638C117.55 20.4852 116.855 20.4029 116.184 20.2197C115.726 20.0862 115.308 19.8443 114.963 19.5144C114.665 19.185 114.459 18.7826 114.367 18.3481C114.255 17.8122 114.192 17.2676 114.177 16.7206V8.04065H111.709V5.62655Z" fill="#ffffff"></path></svg>