<svg xmlns="http://www.w3.org/2000/svg" width="123" height="39" viewBox="0 0 123 39" fill="none"><path d="M19.1718 0.909546C8.67218 0.909546 0.160156 9.41608 0.160156 19.9092C0.160156 30.4035 8.67218 38.9095 19.1718 38.9095C29.6719 38.9095 38.1834 30.4035 38.1834 19.9092C38.1834 9.41675 29.6725 0.909546 19.1718 0.909546ZM27.8904 28.3125C27.549 28.8722 26.8193 29.0476 26.2611 28.7066C21.7966 25.9797 16.1773 25.3637 9.5596 26.8745C8.92189 27.0206 8.28623 26.6211 8.14095 25.984C7.99496 25.3467 8.39293 24.7114 9.03223 24.5662C16.2743 22.9115 22.4863 23.6237 27.4974 26.6839C28.0559 27.0265 28.2332 27.7544 27.8904 28.3125ZM30.2174 23.1398C29.7874 23.837 28.8752 24.0557 28.1785 23.6276C23.0693 20.4889 15.2786 19.5798 9.23406 21.4135C8.45014 21.6501 7.62219 21.2086 7.38427 20.4265C7.14816 19.6431 7.59019 18.8172 8.37273 18.579C15.2772 16.4853 23.8605 17.4995 29.7291 21.1035C30.426 21.5323 30.6465 22.4442 30.2174 23.1398ZM30.4172 17.7527C24.2889 14.1155 14.1804 13.7811 8.33026 15.5555C7.39085 15.8403 6.39739 15.3103 6.1127 14.3714C5.82801 13.4321 6.35789 12.44 7.29799 12.1546C14.0136 10.1171 25.1775 10.5108 32.232 14.6961C33.077 15.1973 33.3542 16.2879 32.8533 17.1312C32.3539 17.9757 31.2594 18.2541 30.4172 17.7527ZM51.8845 18.4497C48.602 17.6674 48.0176 17.1183 48.0176 15.9646C48.0176 14.8747 49.0445 14.1412 50.5714 14.1412C52.0516 14.1412 53.5193 14.6981 55.0581 15.8448C55.1046 15.8795 55.163 15.8934 55.2204 15.8843C55.2779 15.8757 55.3287 15.8441 55.3623 15.7967L56.9651 13.5388C57.0309 13.4458 57.013 13.3176 56.9242 13.2465C55.0928 11.7779 53.0306 11.0639 50.62 11.0639C47.0757 11.0639 44.6 13.1896 44.6 16.231C44.6 19.4924 46.7356 20.6473 50.4261 21.5387C53.5672 22.2618 54.0974 22.8675 54.0974 23.9505C54.0974 25.1504 53.0253 25.8964 51.3002 25.8964C49.3841 25.8964 47.8213 25.2514 46.073 23.7383C46.0296 23.7009 45.9701 23.6839 45.9152 23.687C45.8573 23.6918 45.8044 23.7186 45.7676 23.7628L43.9705 25.9003C43.8951 25.989 43.9047 26.1215 43.9919 26.1982C46.026 28.013 48.5278 28.9716 51.2276 28.9716C55.0468 28.9716 57.5147 26.8861 57.5147 23.6582C57.5215 20.9334 55.8893 19.4246 51.8914 18.4526L51.8845 18.4497ZM66.1552 15.2143C64.4998 15.2143 63.142 15.8659 62.0223 17.2011V15.6982C62.0223 15.5796 61.926 15.4829 61.8075 15.4829H58.8682C58.7495 15.4829 58.6535 15.5796 58.6535 15.6982V32.3973C58.6535 32.516 58.7495 32.6126 58.8682 32.6126H61.8075C61.926 32.6126 62.0223 32.516 62.0223 32.3973V27.1261C63.1422 28.3822 64.5002 28.9959 66.1552 28.9959C69.2312 28.9959 72.345 26.6295 72.345 22.1059C72.3496 17.5812 69.2348 15.2141 66.1586 15.2141L66.1552 15.2143ZM68.9272 22.1059C68.9272 24.4094 67.5074 26.0169 65.4744 26.0169C63.4646 26.0169 61.9485 24.3364 61.9485 22.1059C61.9485 19.8756 63.4646 18.1949 65.4744 18.1949C67.4745 18.1946 68.9272 19.8393 68.9272 22.1059ZM80.3261 15.2143C76.3647 15.2143 73.2613 18.2627 73.2613 22.1551C73.2613 26.0051 76.3434 29.0215 80.2775 29.0215C84.2529 29.0215 87.3658 25.9833 87.3658 22.1059C87.3658 18.2418 84.274 15.2143 80.3261 15.2143ZM80.3261 26.0398C78.219 26.0398 76.6306 24.3479 76.6306 22.1047C76.6306 19.852 78.1641 18.2173 80.2775 18.2173C82.3981 18.2173 83.9972 19.9092 83.9972 22.154C83.9972 24.4063 82.4533 26.0398 80.3261 26.0398ZM95.8249 15.4829H92.5905V12.1782C92.5905 12.0597 92.4947 11.9631 92.376 11.9631H89.4372C89.3182 11.9631 89.2218 12.0597 89.2218 12.1782V15.4829H87.8085C87.6903 15.4829 87.5944 15.5796 87.5944 15.6983V18.2228C87.5944 18.3412 87.6903 18.4381 87.8085 18.4381H89.2218V24.9703C89.2218 27.6101 90.5364 28.9485 93.1293 28.9485C94.1836 28.9485 95.0583 28.7309 95.8826 28.2637C95.9496 28.2263 95.9911 28.1542 95.9911 28.0775V25.6734C95.9911 25.5992 95.9525 25.5291 95.889 25.4903C95.8249 25.4502 95.7453 25.4481 95.6796 25.4806C95.1134 25.7653 94.5661 25.8967 93.9543 25.8967C93.0112 25.8967 92.5905 25.4688 92.5905 24.5097V18.4392H95.8249C95.9437 18.4392 96.0393 18.3426 96.0393 18.2239V15.6996C96.0438 15.581 95.9484 15.4843 95.8281 15.4843L95.8249 15.4829ZM107.094 15.4959V15.09C107.094 13.8959 107.553 13.3634 108.58 13.3634C109.193 13.3634 109.685 13.485 110.236 13.6688C110.304 13.6901 110.375 13.6794 110.43 13.6388C110.487 13.5982 110.519 13.5331 110.519 13.4641V10.9888C110.519 10.8942 110.458 10.8105 110.367 10.7826C109.784 10.6095 109.039 10.4318 107.924 10.4318C105.209 10.4318 103.774 11.9597 103.774 14.8486V15.4702H102.362C102.243 15.4702 102.146 15.5669 102.146 15.6853V18.2228C102.146 18.3412 102.243 18.4381 102.362 18.4381H103.774V28.5137C103.774 28.6324 103.87 28.729 103.988 28.729H106.928C107.046 28.729 107.143 28.6324 107.143 28.5137V18.4388H109.887L114.091 28.5119C113.614 29.5703 113.145 29.7809 112.504 29.7809C111.986 29.7809 111.441 29.6264 110.883 29.3215C110.831 29.2926 110.769 29.2879 110.712 29.3054C110.656 29.3251 110.609 29.3668 110.585 29.4213L109.589 31.6055C109.541 31.7087 109.582 31.8299 109.681 31.8834C110.721 32.4463 111.66 32.6866 112.82 32.6866C114.991 32.6866 116.19 31.6763 117.248 28.9582L122.347 15.7899C122.373 15.7237 122.365 15.6488 122.324 15.59C122.284 15.5317 122.219 15.4965 122.147 15.4965H119.088C118.996 15.4965 118.914 15.5548 118.884 15.6408L115.749 24.5887L112.316 15.6349C112.285 15.5517 112.205 15.4965 112.116 15.4965L107.094 15.4959ZM100.561 15.4829H97.6214C97.5027 15.4829 97.406 15.5796 97.406 15.6983V28.5137C97.406 28.6324 97.5027 28.7291 97.6214 28.7291H100.561C100.679 28.7291 100.776 28.6324 100.776 28.5137V15.6991C100.776 15.6708 100.771 15.6428 100.76 15.6166C100.749 15.5905 100.733 15.5667 100.713 15.5467C100.693 15.5267 100.669 15.5108 100.643 15.5C100.617 15.4892 100.589 15.4828 100.561 15.4829ZM99.1077 9.64773C97.9433 9.64773 96.9984 10.5897 96.9984 11.7534C96.9984 12.9178 97.9435 13.861 99.1077 13.861C100.272 13.861 101.216 12.9178 101.216 11.7534C101.216 10.59 100.271 9.64773 99.1089 9.64773H99.1077Z" fill="#ffffff"></path></svg>