<svg xmlns="http://www.w3.org/2000/svg" width="108" height="21" viewBox="0 0 108 21" fill="none"><path d="M10.6468 17.4091C7.13434 17.4091 4.28756 14.4992 4.28756 10.9091C4.28756 7.31908 7.13477 4.40961 10.6468 4.40961C14.1588 4.40961 17.0051 7.31951 17.0051 10.9091C17.0051 14.4987 14.1596 17.4091 10.6468 17.4091ZM17.026 18.2333C17.026 18.8303 18.046 20.5006 19.2959 20.5006H20.1061C20.2572 20.5002 20.402 20.4399 20.5089 20.333C20.6157 20.2261 20.6759 20.0812 20.6762 19.9301V2.14276H20.6736C20.6657 1.99737 20.6025 1.86051 20.497 1.76016C20.3915 1.65981 20.2517 1.60356 20.1061 1.60291H17.5974C17.4518 1.60366 17.312 1.65993 17.2064 1.76025C17.1009 1.86057 17.0376 1.99737 17.0294 2.14276H17.0265V3.5879C15.4913 1.69544 13.0671 0.909973 10.6374 0.909973C5.11481 0.909973 0.638672 5.38739 0.638672 10.9095C0.638672 16.4317 5.11609 20.9095 10.6374 20.9095C13.068 20.9095 15.7148 19.9667 17.0265 18.2312L17.026 18.2333ZM26.6683 15.6863C28.3424 16.8458 30.17 17.4091 31.926 17.4091C33.5997 17.4091 35.3284 16.5413 35.3284 15.0318C35.3284 13.0165 31.5597 12.7026 29.1918 11.898C26.8239 11.0933 24.7831 9.42901 24.7831 6.73488C24.7831 2.61224 28.4567 0.909546 31.8855 0.909546C34.0581 0.909546 36.299 1.62551 37.7527 2.65233C38.2533 3.03099 37.948 3.46679 37.948 3.46679L36.5612 5.44667C36.4056 5.66968 36.0828 5.84793 35.7416 5.62107C34.8069 5.00319 33.766 4.40791 31.8855 4.40791C29.5577 4.40791 28.5343 5.37418 28.5343 6.57157C28.5343 8.00775 30.1717 8.4589 32.0898 8.94886C35.4329 9.84904 39.0797 10.933 39.0797 15.0309C39.0797 18.6632 35.6815 20.9083 31.9265 20.9083C29.081 20.9083 26.6576 20.0981 24.6257 18.6056C24.2027 18.1817 24.4978 17.7881 24.4978 17.7881L25.8781 15.8172C26.1591 15.4484 26.513 15.5776 26.6683 15.6846V15.6863ZM57.8887 18.2338C57.8887 18.8307 58.9082 20.5006 60.1577 20.5006H60.9679C61.119 20.5002 61.2639 20.4399 61.3708 20.333C61.4777 20.2261 61.538 20.0812 61.5384 19.9301V2.14276H61.5354C61.5273 1.99744 61.4641 1.8607 61.3586 1.76039C61.2531 1.66009 61.1134 1.60376 60.9679 1.60291H58.4597C58.3141 1.60356 58.1742 1.65981 58.0687 1.76016C57.9632 1.86051 57.9 1.99737 57.8921 2.14276H57.8891V3.5879C56.354 1.69544 53.9294 0.909973 51.5 0.909973C45.9775 0.909973 41.5005 5.38739 41.5005 10.9091C41.5005 16.4308 45.9779 20.9091 51.5 20.9091C53.9306 20.9091 56.577 19.9663 57.8887 18.2308V18.2338ZM51.5094 17.4095C47.9966 17.4095 45.1498 14.4992 45.1498 10.9091C45.1498 7.31908 47.9966 4.40961 51.5094 4.40961C55.0223 4.40961 57.8682 7.31951 57.8682 10.9091C57.8682 14.4987 55.021 17.4091 51.5094 17.4091V17.4095ZM84.0091 18.8448V9.64094C84.0091 4.45268 80.7359 0.952188 75.5161 0.952188C73.0245 0.952188 70.9862 2.39307 70.2647 3.63097V3.61306L70.2609 3.62713C70.2609 2.37473 69.243 1.64555 67.991 1.64555H67.1855C67.0343 1.646 66.8893 1.70631 66.7824 1.81331C66.6755 1.9203 66.6153 2.06527 66.615 2.21653V20.0047H66.6184C66.6262 20.15 66.6893 20.2869 66.7947 20.3872C66.9001 20.4876 67.0399 20.5439 67.1855 20.5445H69.6937C69.7314 20.5443 69.7689 20.5406 69.8059 20.5334C69.8225 20.5296 69.8383 20.5232 69.8545 20.5185C69.8733 20.5139 69.8918 20.5081 69.9099 20.501C69.9319 20.4912 69.9532 20.4801 69.9739 20.4678C69.9837 20.4614 69.9948 20.4571 70.0046 20.4511C70.0292 20.4342 70.0525 20.4155 70.0745 20.3953C70.0783 20.3914 70.083 20.3889 70.086 20.3859C70.191 20.2859 70.2537 20.1495 70.2613 20.0047H70.2647V9.49767C70.2769 8.1674 70.8139 6.89579 71.7589 5.95944C72.7039 5.0231 73.9804 4.49779 75.3107 4.49779C76.6411 4.49779 77.9176 5.0231 78.8626 5.95944C79.8075 6.89579 80.3446 8.1674 80.3568 9.49767V18.2819V18.2785C80.3568 18.2866 80.3568 18.2947 80.3568 18.3028V20.006H80.3602C80.368 20.1514 80.4312 20.2883 80.5367 20.3887C80.6422 20.489 80.7822 20.5453 80.9278 20.5458H83.4356C83.4733 20.5456 83.511 20.5419 83.5481 20.5347C83.5631 20.5313 83.5767 20.5253 83.5908 20.5219C83.6117 20.5155 83.6334 20.5104 83.6526 20.5023C83.6727 20.493 83.6922 20.4826 83.711 20.4712C83.723 20.4648 83.7353 20.4597 83.7468 20.4524C83.7696 20.4364 83.7914 20.419 83.8121 20.4004C83.8176 20.3961 83.8232 20.3919 83.8287 20.3868C83.8517 20.3639 83.8729 20.3394 83.8923 20.3134C83.9582 20.2245 83.9968 20.1182 84.0031 20.0077H84.0061V18.8448H84.0091ZM103.569 18.2338C103.569 18.8307 104.587 20.5006 105.838 20.5006H106.648C106.799 20.5002 106.944 20.4399 107.051 20.333C107.158 20.2261 107.218 20.0812 107.218 19.9301V2.14276H107.216C107.208 1.99741 107.144 1.86066 107.039 1.76036C106.933 1.66007 106.793 1.60376 106.648 1.60291H104.14C103.994 1.60336 103.854 1.65954 103.749 1.75993C103.643 1.86032 103.58 1.9973 103.572 2.14276H103.569V3.5879C102.031 1.69544 99.6093 0.909973 97.1791 0.909973C91.6574 0.909973 87.1804 5.38739 87.1804 10.9091C87.1804 16.4308 91.6578 20.9091 97.1791 20.9091C99.6097 20.9091 102.257 19.9663 103.568 18.2308V18.2338H103.569ZM97.1898 17.4095C93.6769 17.4095 90.8301 14.4992 90.8301 10.9091C90.8301 7.31908 93.6769 4.40961 97.1898 4.40961C100.703 4.40961 103.547 7.31951 103.547 10.9091C103.547 14.4987 100.7 17.4091 97.1898 17.4091V17.4095Z" fill="#ffffff"></path></svg>