<svg xmlns="http://www.w3.org/2000/svg" width="110" height="37" viewBox="0 0 110 37" fill="none"><path d="M13.6349 0.909546H14.6037C17.967 0.983565 21.2754 2.35291 23.6517 4.77703C22.7743 5.68376 21.8786 6.55348 21.0195 7.46021C19.6852 6.2389 18.0766 5.29516 16.3219 4.96208C13.7263 4.40693 10.9297 4.90656 8.75448 6.40544C6.37824 7.97834 4.76971 10.643 4.42242 13.4927C4.03856 16.3055 4.82455 19.2662 6.63415 21.4498C8.37063 23.5778 11.021 24.9101 13.7629 25.0027C16.3219 25.1507 18.9906 24.355 20.855 22.5415C22.3173 21.2647 22.9936 19.3217 23.213 17.4342C20.1787 17.4342 17.1444 17.4527 14.1102 17.4342V13.6223H26.887C27.545 17.7118 26.5945 22.3195 23.5237 25.2432C21.4765 27.3158 18.6433 28.5371 15.7552 28.7776C12.9586 29.0552 10.0706 28.5186 7.58464 27.1492C4.60521 25.5393 2.22897 22.8191 1.05913 19.6178C-0.0375971 16.6756 -0.0558759 13.3447 0.967734 10.384C1.89995 7.68227 3.69127 5.29516 5.99439 3.62974C8.20612 1.98282 10.8931 1.07609 13.6349 0.909546Z" fill="#ffffff"></path><path d="M86.9326 1.8717H90.8443V28.2964C89.5465 28.2964 88.2304 28.3149 86.9326 28.2779C86.9509 19.4882 86.9326 10.6799 86.9326 1.8717Z" fill="#ffffff"></path><path d="M35.5877 11.0316C38.0005 10.569 40.6144 11.0871 42.6068 12.549C44.4164 13.8443 45.6776 15.8798 46.0615 18.1004C46.555 20.6725 45.9335 23.4852 44.2884 25.5208C42.5154 27.7968 39.6091 29.0181 36.7759 28.8331C34.1803 28.6851 31.6578 27.3712 30.1224 25.2247C28.3859 22.8561 27.9655 19.5993 28.916 16.8236C29.8665 13.8443 32.5535 11.5682 35.5877 11.0316ZM36.1361 14.5475C35.1491 14.8065 34.2351 15.3802 33.5771 16.1944C31.804 18.3409 31.9137 21.8383 33.8695 23.8368C34.9845 24.9841 36.6662 25.5208 38.2199 25.2062C39.6639 24.9471 40.9251 23.9664 41.6197 22.671C42.8261 20.469 42.4788 17.4342 40.6327 15.7133C39.4446 14.603 37.7081 14.1404 36.1361 14.5475Z" fill="#ffffff"></path><path d="M54.9633 11.0316C57.7234 10.495 60.7394 11.2722 62.8049 13.2337C66.1682 16.2869 66.5338 22.0049 63.664 25.5208C61.9275 27.7413 59.1126 28.9626 56.3342 28.8331C53.6838 28.7591 51.07 27.4268 49.498 25.2247C47.725 22.8006 47.3411 19.4697 48.3464 16.6385C49.3518 13.7518 51.9839 11.5497 54.9633 11.0316ZM55.5117 14.5475C54.5247 14.8066 53.6107 15.3802 52.9527 16.1759C51.1979 18.2854 51.271 21.7273 53.1537 23.7443C54.2688 24.9471 56.0052 25.5393 57.6138 25.2062C59.0395 24.9286 60.319 23.9664 61.0136 22.6711C62.2017 20.4505 61.8544 17.4157 59.99 15.6948C58.8019 14.5845 57.0654 14.1404 55.5117 14.5475Z" fill="#ffffff"></path><path d="M71.3956 12.1048C73.4977 10.7725 76.2943 10.4024 78.5609 11.5497C79.2738 11.8643 79.8587 12.4009 80.4253 12.9375C80.4436 12.4379 80.4253 11.9198 80.4436 11.4017C81.6683 11.4202 82.893 11.4017 84.1359 11.4202V27.7413C84.1177 30.2024 83.4962 32.8116 81.7414 34.6065C79.8221 36.5865 76.8793 37.1972 74.2288 36.7901C71.3956 36.3645 68.928 34.2734 67.8313 31.6273C68.928 31.0906 70.0796 30.665 71.2129 30.1654C71.8526 31.6828 73.1504 32.9781 74.7772 33.2742C76.404 33.5703 78.2867 33.1632 79.3469 31.7938C80.4802 30.3875 80.4802 28.463 80.4253 26.742C79.5845 27.5748 78.6157 28.3149 77.4459 28.5925C74.9052 29.3142 72.1085 28.426 70.1527 26.6865C68.1786 24.9471 67.0087 22.2639 67.1184 19.5992C67.1733 16.583 68.8549 13.6777 71.3956 12.1048ZM75.1793 14.4734C74.0643 14.6585 73.0225 15.2876 72.3096 16.1574C70.5914 18.2299 70.5914 21.5422 72.3279 23.5777C73.3149 24.7805 74.9052 25.4467 76.4406 25.2802C77.8846 25.1321 79.2189 24.2069 79.9318 22.9301C81.1382 20.765 80.9372 17.8228 79.3103 15.9353C78.305 14.7695 76.6965 14.1959 75.1793 14.4734Z" fill="#ffffff"></path><path d="M95.5419 13.0485C97.7354 10.976 101.117 10.2728 103.932 11.3646C106.601 12.3824 108.301 14.9545 109.16 17.6007C105.193 19.2661 101.245 20.913 97.2784 22.5785C97.8268 23.6332 98.6676 24.5955 99.8009 24.9841C101.391 25.5577 103.292 25.3542 104.626 24.2809C105.157 23.8738 105.577 23.3371 105.979 22.819C106.984 23.5037 107.99 24.1699 108.995 24.8545C107.569 27.0196 105.175 28.537 102.598 28.7775C99.7461 29.1291 96.7118 28.0188 94.8656 25.7613C91.8314 22.2084 92.1238 16.2498 95.5419 13.0485ZM97.4978 16.4719C96.8763 17.3786 96.6204 18.4889 96.6387 19.5807C99.2891 18.4704 101.94 17.3601 104.59 16.2313C104.151 15.1951 103.091 14.5659 102.013 14.3994C100.276 14.0848 98.4665 15.0285 97.4978 16.4719Z" fill="#ffffff"></path></svg>